<svg xmlns="http://www.w3.org/2000/svg" width="744" height="1073" viewBox="34318 6415 744 1073" fill="none"><g>
<g clip-path="url(#clip102_0_1)">
<rect x="34318" y="6415" width="744" height="1073" rx="20" fill="#0D0D0D" />
<g>
<path d="M34798.3 6575V6565.06H34801.1C34802.2 6565.06 34803 6565.3 34803.5 6565.79C34804.1 6566.27 34804.4 6566.94 34804.4 6567.78C34804.4 6568.19 34804.3 6568.56 34804.1 6568.88C34803.9 6569.21 34803.6 6569.47 34803.2 6569.65C34802.9 6569.84 34802.5 6569.93 34802 6569.93V6569.85C34802.6 6569.85 34803.1 6569.95 34803.5 6570.14C34803.9 6570.34 34804.2 6570.61 34804.4 6570.97C34804.7 6571.32 34804.8 6571.74 34804.8 6572.23C34804.8 6573.09 34804.5 6573.76 34803.9 6574.26C34803.3 6574.75 34802.5 6575 34801.4 6575H34798.3ZM34799.5 6573.82H34801.4C34802.1 6573.82 34802.7 6573.68 34803 6573.4C34803.4 6573.12 34803.5 6572.73 34803.5 6572.23C34803.5 6571.7 34803.3 6571.28 34803 6570.98C34802.6 6570.68 34802.1 6570.53 34801.4 6570.53H34799.5V6573.82ZM34799.5 6569.36H34801.1C34801.8 6569.36 34802.3 6569.22 34802.6 6568.95C34802.9 6568.68 34803.1 6568.3 34803.1 6567.8C34803.1 6567.3 34802.9 6566.91 34802.6 6566.64C34802.3 6566.37 34801.8 6566.24 34801.1 6566.24H34799.5V6569.36ZM34806.5 6575V6573.82H34809V6566.24H34806.5V6565.06H34812.7V6566.24H34810.2V6573.82H34812.7V6575H34806.5ZM34818 6575.22C34817.2 6575.22 34816.5 6575.02 34816 6574.62C34815.4 6574.22 34815 6573.63 34814.7 6572.86C34814.5 6572.08 34814.3 6571.15 34814.3 6570.04C34814.3 6568.92 34814.5 6567.98 34814.7 6567.2C34815 6566.43 34815.4 6565.84 34816 6565.44C34816.5 6565.04 34817.2 6564.84 34818 6564.84C34818.8 6564.84 34819.4 6565.04 34820 6565.44C34820.5 6565.84 34820.9 6566.43 34821.2 6567.2C34821.5 6567.98 34821.7 6568.92 34821.7 6570.04C34821.7 6571.15 34821.5 6572.08 34821.2 6572.86C34820.9 6573.63 34820.5 6574.22 34820 6574.62C34819.4 6575.02 34818.8 6575.22 34818 6575.22ZM34818 6574.05C34818.5 6574.05 34818.9 6573.9 34819.3 6573.6C34819.7 6573.29 34819.9 6572.84 34820.1 6572.24C34820.3 6571.64 34820.4 6570.91 34820.4 6570.04C34820.4 6569.18 34820.3 6568.44 34820.1 6567.85C34819.9 6567.24 34819.7 6566.78 34819.3 6566.47C34818.9 6566.17 34818.5 6566.01 34818 6566.01C34817.5 6566.01 34817 6566.17 34816.7 6566.47C34816.3 6566.78 34816 6567.24 34815.9 6567.85C34815.7 6568.44 34815.6 6569.18 34815.6 6570.04C34815.6 6570.91 34815.7 6571.64 34815.9 6572.24C34816 6572.84 34816.3 6573.29 34816.7 6573.6C34817 6573.9 34817.5 6574.05 34818 6574.05ZM34826.5 6575.22C34825.8 6575.22 34825.2 6575.08 34824.7 6574.79C34824.1 6574.5 34823.7 6574.1 34823.4 6573.6C34823 6573.09 34822.9 6572.49 34822.8 6571.82L34824.1 6571.74C34824.1 6572.23 34824.3 6572.65 34824.5 6573C34824.7 6573.34 34825 6573.6 34825.3 6573.78C34825.7 6573.96 34826.1 6574.05 34826.6 6574.05C34827 6574.05 34827.4 6573.99 34827.7 6573.88C34828.1 6573.76 34828.3 6573.59 34828.5 6573.36C34828.6 6573.13 34828.7 6572.85 34828.7 6572.52C34828.7 6572.2 34828.6 6571.93 34828.5 6571.71C34828.3 6571.48 34828.1 6571.26 34827.7 6571.07C34827.3 6570.86 34826.7 6570.65 34825.9 6570.44C34825.2 6570.24 34824.7 6570.03 34824.2 6569.79C34823.8 6569.55 34823.5 6569.26 34823.3 6568.92C34823.1 6568.58 34823 6568.16 34823 6567.66C34823 6567.1 34823.2 6566.61 34823.4 6566.19C34823.7 6565.76 34824.1 6565.43 34824.6 6565.2C34825.1 6564.96 34825.7 6564.84 34826.3 6564.84C34827 6564.84 34827.6 6564.98 34828.1 6565.26C34828.6 6565.53 34829 6565.9 34829.2 6566.38C34829.5 6566.85 34829.7 6567.39 34829.8 6568L34828.5 6568.08C34828.5 6567.68 34828.4 6567.33 34828.2 6567.02C34828 6566.7 34827.8 6566.46 34827.4 6566.28C34827.1 6566.1 34826.8 6566.01 34826.3 6566.01C34825.7 6566.01 34825.2 6566.16 34824.8 6566.46C34824.5 6566.75 34824.3 6567.13 34824.3 6567.61C34824.3 6567.92 34824.4 6568.17 34824.5 6568.38C34824.6 6568.57 34824.9 6568.75 34825.2 6568.91C34825.6 6569.06 34826.1 6569.22 34826.7 6569.4C34827.5 6569.62 34828.1 6569.88 34828.6 6570.16C34829.1 6570.44 34829.4 6570.77 34829.6 6571.15C34829.9 6571.53 34830 6572 34830 6572.55C34830 6573.07 34829.8 6573.54 34829.5 6573.95C34829.2 6574.35 34828.8 6574.66 34828.3 6574.89C34827.8 6575.11 34827.2 6575.22 34826.5 6575.22ZM34831.7 6575V6573.82H34834.2V6566.24H34831.7V6565.06H34837.9V6566.24H34835.4V6573.82H34837.9V6575H34831.7ZM34843.1 6575.22C34842.4 6575.22 34841.8 6575.03 34841.3 6574.65C34840.7 6574.26 34840.3 6573.68 34840 6572.91C34839.7 6572.14 34839.5 6571.18 34839.5 6570.04C34839.5 6568.97 34839.6 6568.05 34839.9 6567.27C34840.2 6566.5 34840.7 6565.9 34841.2 6565.48C34841.8 6565.05 34842.4 6564.84 34843.2 6564.84C34843.8 6564.84 34844.3 6564.97 34844.8 6565.24C34845.3 6565.51 34845.7 6565.89 34846 6566.38C34846.3 6566.85 34846.5 6567.4 34846.7 6568.03L34845.4 6568.11C34845.3 6567.5 34845 6566.99 34844.6 6566.6C34844.3 6566.21 34843.8 6566.01 34843.2 6566.01C34842.7 6566.01 34842.2 6566.17 34841.9 6566.49C34841.5 6566.8 34841.2 6567.25 34841 6567.86C34840.9 6568.46 34840.8 6569.19 34840.8 6570.04C34840.8 6570.89 34840.9 6571.62 34841.1 6572.21C34841.3 6572.81 34841.5 6573.27 34841.9 6573.59C34842.3 6573.89 34842.7 6574.05 34843.3 6574.05C34843.7 6574.05 34844.1 6573.93 34844.5 6573.68C34844.8 6573.43 34845.1 6573.09 34845.3 6572.65C34845.5 6572.2 34845.6 6571.69 34845.6 6571.12H34843.2V6569.97H34846.7V6575H34845.6L34845.6 6572.65L34845.9 6572.76C34845.8 6573.24 34845.6 6573.66 34845.3 6574.03C34845.1 6574.41 34844.8 6574.7 34844.5 6574.92C34844.1 6575.12 34843.7 6575.22 34843.1 6575.22ZM34848.3 6575V6565.06H34850.1L34853.8 6574.15L34853.6 6574.19V6565.06H34854.8V6575H34853.1L34849.3 6565.91L34849.6 6565.86V6575H34848.3ZM34856.1 6575L34859.1 6565.06H34860.8L34863.8 6575H34862.5L34860 6566.15L34857.4 6575H34856.1ZM34857.7 6572.17L34858.1 6571H34861.9L34862.3 6572.17H34857.7ZM34859.4 6564.11L34860.4 6562.32H34861.7L34860.4 6564.11H34859.4ZM34865.6 6575V6565.06H34866.8V6574.44L34866.2 6573.82H34871.7V6575H34865.6ZM34949.4 6575V6565.06H34951.7C34952.6 6565.06 34953.3 6565.26 34954 6565.65C34954.6 6566.03 34955.1 6566.6 34955.4 6567.34C34955.8 6568.08 34956 6568.98 34956 6570.04C34956 6571.11 34955.8 6572.01 34955.4 6572.75C34955.1 6573.48 34954.6 6574.04 34954 6574.43C34953.3 6574.81 34952.6 6575 34951.7 6575H34949.4ZM34950.6 6573.82H34951.6C34952.6 6573.82 34953.4 6573.51 34953.9 6572.89C34954.4 6572.25 34954.7 6571.3 34954.7 6570.04C34954.7 6568.78 34954.4 6567.84 34953.9 6567.2C34953.4 6566.56 34952.6 6566.24 34951.6 6566.24H34950.6V6573.82ZM34957.8 6575V6565.06H34963.8V6566.24H34959V6569.44H34963.6V6570.59H34959V6573.82H34963.9V6575H34957.8ZM34968.5 6575V6566.24H34965.5V6565.06H34972.7V6566.24H34969.7V6575H34968.5ZM34974.5 6575V6565.06H34980.6V6566.24H34975.7V6569.44H34980.4V6570.59H34975.7V6573.82H34980.7V6575H34974.5ZM34983.6 6571.84V6570.21L34987.9 6565.06H34989.4L34983.6 6571.84ZM34982.5 6575V6565.06H34983.7V6575H34982.5ZM34988 6575L34984.6 6569.96L34985.4 6569.09L34989.5 6575H34988ZM34994.3 6575.22C34993.5 6575.22 34992.8 6575.02 34992.3 6574.62C34991.7 6574.22 34991.3 6573.63 34991 6572.86C34990.7 6572.08 34990.6 6571.15 34990.6 6570.04C34990.6 6568.92 34990.7 6567.98 34991 6567.2C34991.3 6566.43 34991.7 6565.84 34992.3 6565.44C34992.8 6565.04 34993.5 6564.84 34994.3 6564.84C34995.1 6564.84 34995.7 6565.04 34996.3 6565.44C34996.8 6565.84 34997.2 6566.43 34997.5 6567.2C34997.8 6567.98 34997.9 6568.92 34997.9 6570.04C34997.9 6571.15 34997.8 6572.08 34997.5 6572.86C34997.2 6573.63 34996.8 6574.22 34996.3 6574.62C34995.7 6575.02 34995.1 6575.22 34994.3 6575.22ZM34994.3 6574.05C34994.8 6574.05 34995.2 6573.9 34995.6 6573.6C34995.9 6573.29 34996.2 6572.84 34996.4 6572.24C34996.6 6571.64 34996.7 6570.91 34996.7 6570.04C34996.7 6569.18 34996.6 6568.44 34996.4 6567.85C34996.2 6567.24 34995.9 6566.78 34995.6 6566.47C34995.2 6566.17 34994.8 6566.01 34994.3 6566.01C34993.8 6566.01 34993.3 6566.17 34993 6566.47C34992.6 6566.78 34992.3 6567.24 34992.1 6567.85C34992 6568.44 34991.9 6569.18 34991.9 6570.04C34991.9 6570.91 34992 6571.64 34992.1 6572.24C34992.3 6572.84 34992.6 6573.29 34993 6573.6C34993.3 6573.9 34993.8 6574.05 34994.3 6574.05ZM35001.9 6575L34998.9 6565.06H35000.2L35002.8 6574.22H35002.5L35005.2 6565.06H35006.4L35003.5 6575H35001.9ZM35007.2 6575L35010.3 6565.06H35011.9L35014.9 6575H35013.6L35011.1 6566.15L35008.5 6575H35007.2ZM35008.8 6572.17L35009.2 6571H35013L35013.4 6572.17H35008.8ZM35010.5 6564.11L35011.5 6562.32H35012.8L35011.5 6564.11H35010.5ZM35016.2 6575V6565.06H35017.9L35021.7 6574.15L35021.5 6574.19V6565.06H35022.7V6575H35021L35017.2 6565.91L35017.4 6565.86V6575H35016.2Z" fill="#CCCCCC" />
<path d="M34882.5 6576.54L34886.7 6564.5H34887.8L34883.6 6576.54H34882.5ZM34890.9 6576.54L34895.1 6564.5H34896.2L34892 6576.54H34890.9ZM34899.2 6576.54L34903.5 6564.5H34904.6L34900.4 6576.54H34899.2ZM34907.6 6576.54L34911.9 6564.5H34913L34908.8 6576.54H34907.6ZM34916 6576.54L34920.3 6564.5H34921.4L34917.2 6576.54H34916ZM34924.4 6576.54L34928.7 6564.5H34929.8L34925.5 6576.54H34924.4ZM34932.8 6576.54L34937.1 6564.5H34938.2L34933.9 6576.54H34932.8Z" fill="#CCCCCC" fill-opacity="0.3" />
</g>
<path d="M34797.6 6587.44V6586.66H34802.4V6587.44H34797.6ZM34799.6 6589.44V6584.66H34800.4V6589.44H34799.6ZM34803.6 6587.44V6586.66H34808.4V6587.44H34803.6ZM34805.6 6589.44V6584.66H34806.4V6589.44H34805.6ZM34809.6 6587.44V6586.66H34814.4V6587.44H34809.6ZM34811.6 6589.44V6584.66H34812.4V6589.44H34811.6ZM34815.6 6587.44V6586.66H34820.4V6587.44H34815.6ZM34817.6 6589.44V6584.66H34818.4V6589.44H34817.6ZM34821.6 6587.44V6586.66H34826.4V6587.44H34821.6ZM34823.6 6589.44V6584.66H34824.4V6589.44H34823.6ZM34827.6 6587.44V6586.66H34832.4V6587.44H34827.6ZM34829.6 6589.44V6584.66H34830.4V6589.44H34829.6ZM34833.6 6587.44V6586.66H34838.4V6587.44H34833.6ZM34835.6 6589.44V6584.66H34836.4V6589.44H34835.6ZM34839.6 6587.44V6586.66H34844.4V6587.44H34839.6ZM34841.6 6589.44V6584.66H34842.4V6589.44H34841.6ZM34845.6 6587.44V6586.66H34850.4V6587.44H34845.6ZM34847.6 6589.44V6584.66H34848.4V6589.44H34847.6ZM34851.6 6587.44V6586.66H34856.4V6587.44H34851.6ZM34853.6 6589.44V6584.66H34854.4V6589.44H34853.6ZM34857.6 6587.44V6586.66H34862.4V6587.44H34857.6ZM34859.6 6589.44V6584.66H34860.4V6589.44H34859.6ZM34863.6 6587.44V6586.66H34868.3V6587.44H34863.6ZM34865.6 6589.44V6584.66H34866.3V6589.44H34865.6ZM34869.6 6587.44V6586.66H34874.3V6587.44H34869.6ZM34871.6 6589.44V6584.66H34872.3V6589.44H34871.6ZM34875.6 6587.44V6586.66H34880.3V6587.44H34875.6ZM34877.6 6589.44V6584.66H34878.3V6589.44H34877.6ZM34881.6 6587.44V6586.66H34886.3V6587.44H34881.6ZM34883.6 6589.44V6584.66H34884.3V6589.44H34883.6ZM34887.6 6587.44V6586.66H34892.3V6587.44H34887.6ZM34889.6 6589.44V6584.66H34890.3V6589.44H34889.6ZM34893.5 6587.44V6586.66H34898.3V6587.44H34893.5ZM34895.5 6589.44V6584.66H34896.3V6589.44H34895.5ZM34899.5 6587.44V6586.66H34904.3V6587.44H34899.5ZM34901.5 6589.44V6584.66H34902.3V6589.44H34901.5ZM34905.5 6587.44V6586.66H34910.3V6587.44H34905.5ZM34907.5 6589.44V6584.66H34908.3V6589.44H34907.5ZM34911.5 6587.44V6586.66H34916.3V6587.44H34911.5ZM34913.5 6589.44V6584.66H34914.3V6589.44H34913.5ZM34917.5 6587.44V6586.66H34922.3V6587.44H34917.5ZM34919.5 6589.44V6584.66H34920.3V6589.44H34919.5ZM34923.5 6587.44V6586.66H34928.3V6587.44H34923.5ZM34925.5 6589.44V6584.66H34926.3V6589.44H34925.5ZM34929.5 6587.44V6586.66H34934.3V6587.44H34929.5ZM34931.5 6589.44V6584.66H34932.3V6589.44H34931.5ZM34935.5 6587.44V6586.66H34940.3V6587.44H34935.5ZM34937.5 6589.44V6584.66H34938.3V6589.44H34937.5ZM34941.5 6587.44V6586.66H34946.3V6587.44H34941.5ZM34943.5 6589.44V6584.66H34944.3V6589.44H34943.5ZM34947.5 6587.44V6586.66H34952.3V6587.44H34947.5ZM34949.5 6589.44V6584.66H34950.3V6589.44H34949.5ZM34953.5 6587.44V6586.66H34958.3V6587.44H34953.5ZM34955.5 6589.44V6584.66H34956.3V6589.44H34955.5ZM34959.5 6587.44V6586.66H34964.3V6587.44H34959.5ZM34961.5 6589.44V6584.66H34962.3V6589.44H34961.5ZM34965.5 6587.44V6586.66H34970.3V6587.44H34965.5ZM34967.5 6589.44V6584.66H34968.3V6589.44H34967.5ZM34971.5 6587.44V6586.66H34976.3V6587.44H34971.5ZM34973.5 6589.44V6584.66H34974.3V6589.44H34973.5ZM34977.5 6587.44V6586.66H34982.3V6587.44H34977.5ZM34979.5 6589.44V6584.66H34980.3V6589.44H34979.5ZM34983.5 6587.44V6586.66H34988.3V6587.44H34983.5ZM34985.5 6589.44V6584.66H34986.3V6589.44H34985.5ZM34989.5 6587.44V6586.66H34994.3V6587.44H34989.5ZM34991.5 6589.44V6584.66H34992.3V6589.44H34991.5ZM34995.5 6587.44V6586.66H35000.3V6587.44H34995.5ZM34997.5 6589.44V6584.66H34998.3V6589.44H34997.5ZM35001.5 6587.44V6586.66H35006.3V6587.44H35001.5ZM35003.5 6589.44V6584.66H35004.3V6589.44H35003.5ZM35007.5 6587.44V6586.66H35012.3V6587.44H35007.5ZM35009.5 6589.44V6584.66H35010.3V6589.44H35009.5ZM35013.5 6587.44V6586.66H35018.2V6587.44H35013.5ZM35015.5 6589.44V6584.66H35016.2V6589.44H35015.5ZM35019.5 6587.44V6586.66H35024.2V6587.44H35019.5ZM35021.5 6589.44V6584.66H35022.2V6589.44H35021.5Z" fill="#CCCCCC" />
<g>
<g>
<rect width="311" height="18" transform="translate(34714 6659)" fill="#CCCCCC" fill-opacity="0.15" />
<g>
<path d="M34727.1 6673V6671.82H34729.6V6664.24H34727.1V6663.06H34733.3V6664.24H34730.8V6671.82H34733.3V6673H34727.1ZM34735.4 6673V6663.06H34737.1L34740.8 6672.15L34740.6 6672.19V6663.06H34741.8V6673H34740.1L34736.4 6663.91L34736.6 6663.86V6673H34735.4ZM34747.1 6673.22C34746.4 6673.22 34745.8 6673.08 34745.3 6672.79C34744.7 6672.5 34744.3 6672.1 34744 6671.6C34743.7 6671.09 34743.5 6670.49 34743.4 6669.82L34744.7 6669.74C34744.7 6670.23 34744.9 6670.65 34745.1 6671C34745.3 6671.34 34745.6 6671.6 34745.9 6671.78C34746.3 6671.96 34746.7 6672.05 34747.2 6672.05C34747.6 6672.05 34748 6671.99 34748.3 6671.88C34748.7 6671.76 34748.9 6671.59 34749.1 6671.36C34749.2 6671.13 34749.3 6670.85 34749.3 6670.52C34749.3 6670.2 34749.2 6669.93 34749.1 6669.71C34748.9 6669.48 34748.7 6669.26 34748.3 6669.07C34747.9 6668.86 34747.3 6668.65 34746.5 6668.44C34745.8 6668.24 34745.3 6668.03 34744.8 6667.79C34744.4 6667.55 34744.1 6667.26 34743.9 6666.92C34743.7 6666.58 34743.6 6666.16 34743.6 6665.66C34743.6 6665.1 34743.8 6664.61 34744 6664.19C34744.3 6663.76 34744.7 6663.43 34745.2 6663.2C34745.7 6662.96 34746.3 6662.84 34746.9 6662.84C34747.6 6662.84 34748.2 6662.98 34748.7 6663.26C34749.2 6663.53 34749.6 6663.9 34749.8 6664.38C34750.1 6664.85 34750.3 6665.39 34750.4 6666L34749.1 6666.08C34749.1 6665.68 34749 6665.33 34748.8 6665.02C34748.6 6664.7 34748.4 6664.46 34748.1 6664.28C34747.7 6664.1 34747.4 6664.01 34746.9 6664.01C34746.3 6664.01 34745.8 6664.16 34745.4 6664.46C34745.1 6664.75 34744.9 6665.13 34744.9 6665.61C34744.9 6665.92 34745 6666.17 34745.1 6666.38C34745.2 6666.57 34745.5 6666.75 34745.8 6666.91C34746.2 6667.06 34746.7 6667.22 34747.3 6667.4C34748.1 6667.62 34748.7 6667.88 34749.2 6668.16C34749.7 6668.44 34750 6668.77 34750.3 6669.15C34750.5 6669.53 34750.6 6670 34750.6 6670.55C34750.6 6671.07 34750.4 6671.54 34750.1 6671.95C34749.8 6672.35 34749.4 6672.66 34748.9 6672.89C34748.4 6673.11 34747.8 6673.22 34747.1 6673.22ZM34754.8 6673V6664.24H34751.7V6663.06H34759V6664.24H34756V6673H34754.8ZM34760.6 6673V6663.06H34763.6C34764.6 6663.06 34765.5 6663.33 34766.1 6663.86C34766.7 6664.38 34767 6665.1 34767 6666.03C34767 6666.49 34766.9 6666.91 34766.6 6667.27C34766.4 6667.63 34766.2 6667.91 34765.8 6668.11C34765.5 6668.32 34765.1 6668.44 34764.8 6668.46L34764.7 6668.3C34765.4 6668.33 34765.9 6668.49 34766.2 6668.77C34766.6 6669.05 34766.7 6669.51 34766.8 6670.14L34767.1 6673H34765.9L34765.6 6670.3C34765.6 6669.99 34765.5 6669.74 34765.4 6669.56C34765.3 6669.36 34765.1 6669.22 34764.8 6669.14C34764.6 6669.04 34764.3 6669 34763.8 6669H34761.8V6673H34760.6ZM34761.8 6667.82H34763.6C34764.3 6667.82 34764.8 6667.67 34765.2 6667.36C34765.5 6667.04 34765.7 6666.6 34765.7 6666.03C34765.7 6665.45 34765.5 6665.01 34765.2 6664.7C34764.8 6664.39 34764.3 6664.24 34763.6 6664.24H34761.8V6667.82ZM34772.2 6673.22C34771.1 6673.22 34770.3 6672.89 34769.7 6672.23C34769.1 6671.57 34768.8 6670.67 34768.8 6669.53V6663.06H34770V6669.53C34770 6670.35 34770.2 6670.97 34770.6 6671.4C34770.9 6671.83 34771.5 6672.05 34772.2 6672.05C34772.9 6672.05 34773.4 6671.83 34773.8 6671.4C34774.1 6670.97 34774.3 6670.35 34774.3 6669.53V6663.06H34775.5V6669.53C34775.5 6670.67 34775.2 6671.57 34774.6 6672.23C34774 6672.89 34773.2 6673.22 34772.2 6673.22ZM34778.3 6669.84V6668.21L34782.6 6663.06H34784.1L34778.3 6669.84ZM34777.2 6673V6663.06H34778.4V6673H34777.2ZM34782.7 6673L34779.3 6667.96L34780.1 6667.09L34784.2 6673H34782.7ZM34789 6673.22C34788.2 6673.22 34787.5 6673.01 34787 6672.59C34786.4 6672.17 34786 6671.58 34785.7 6670.8C34785.4 6670.03 34785.3 6669.11 34785.3 6668.04C34785.3 6666.97 34785.4 6666.05 34785.7 6665.27C34786 6664.5 34786.4 6663.9 34787 6663.48C34787.5 6663.05 34788.2 6662.84 34789 6662.84C34789.9 6662.84 34790.6 6663.13 34791.2 6663.7C34791.8 6664.27 34792.3 6665.07 34792.5 6666.1L34791.2 6666.18C34791 6665.46 34790.7 6664.92 34790.3 6664.56C34790 6664.19 34789.5 6664.01 34789 6664.01C34788.5 6664.01 34788 6664.17 34787.6 6664.49C34787.3 6664.8 34787 6665.25 34786.8 6665.86C34786.6 6666.46 34786.6 6667.19 34786.6 6668.04C34786.6 6668.89 34786.6 6669.62 34786.8 6670.21C34787 6670.81 34787.3 6671.27 34787.6 6671.59C34788 6671.89 34788.5 6672.05 34789 6672.05C34789.6 6672.05 34790.1 6671.85 34790.5 6671.45C34790.9 6671.04 34791.1 6670.45 34791.3 6669.65L34792.5 6669.72C34792.4 6670.82 34792 6671.67 34791.3 6672.3C34790.7 6672.92 34789.9 6673.22 34789 6673.22ZM34794.4 6673V6663.06H34800.5V6664.24H34795.6V6667.44H34800.3V6668.59H34795.6V6671.82H34800.6V6673H34794.4Z" fill="#CCCCCC" />
</g>
</g>
<g>
<path d="M34716.9 6711.8H34724.2L34737.6 6739H34738.6L34738 6736.48V6711.8H34741.6V6740H34734.3L34720.9 6712.8H34719.9L34720.5 6715.32V6740H34716.9V6711.8ZM34754.5 6711.8H34762.3L34771.3 6740H34767.5L34758.9 6712.8H34757.9L34749.3 6740H34745.6L34754.5 6711.8ZM34751 6726.08H34766V6729.2H34751V6726.08ZM34770.2 6711.8H34774L34782.6 6739H34783.6L34792.2 6711.8H34796L34787 6740H34779.2L34770.2 6711.8ZM34803.9 6711.8H34811.7L34820.7 6740H34816.9L34808.3 6712.8H34807.3L34798.7 6740H34794.9L34803.9 6711.8ZM34800.3 6726.08H34815.4V6729.2H34800.3V6726.08ZM34823.9 6733.04L34844.9 6715.32V6714.32L34842.5 6714.92H34823.9V6711.8H34845.9V6718.76L34824.9 6736.48V6737.48L34827.3 6736.88H34845.9V6740H34823.9V6733.04ZM34850.3 6711.8H34854V6728.76C34854 6729.21 34854 6729.56 34854 6729.8C34854.1 6731.53 34854.4 6732.95 34854.9 6734.04C34855.4 6735.11 34856.2 6735.92 34857.3 6736.48C34858.4 6737.01 34859.8 6737.28 34861.7 6737.28C34863.5 6737.28 34865 6737 34866.1 6736.44C34867.2 6735.88 34868 6735.05 34868.5 6733.96C34869 6732.84 34869.3 6731.4 34869.4 6729.64C34869.4 6729.43 34869.4 6729.13 34869.4 6728.76V6711.8H34873.1V6729.52C34873.1 6733.09 34872.1 6735.81 34870.2 6737.68C34868.4 6739.52 34865.5 6740.44 34861.7 6740.44C34859.1 6740.44 34857 6740.03 34855.3 6739.2C34853.6 6738.35 34852.4 6737.12 34851.5 6735.52C34850.7 6733.89 34850.3 6731.89 34850.3 6729.52V6711.8ZM34875.3 6740V6736.88H34884.4C34885.7 6736.88 34886.7 6736.63 34887.5 6736.12C34888.3 6735.61 34888.8 6734.89 34889.1 6733.96C34889.5 6733.03 34889.7 6731.84 34889.7 6730.4C34889.7 6730.29 34889.7 6730.2 34889.7 6730.12V6714.92H34879.4V6711.8H34890.5C34891.5 6711.8 34892.2 6712 34892.6 6712.4C34893.1 6712.77 34893.3 6713.44 34893.3 6714.4V6731.12C34893.3 6734 34892.6 6736.2 34891.2 6737.72C34889.8 6739.24 34887.9 6740 34885.3 6740H34875.3ZM34914.1 6711.8V6714.92H34897.8V6711.8H34914.1ZM34914.1 6736.88V6740H34897.8V6736.88H34914.1ZM34907.8 6712.6V6739.2H34904.2V6712.6H34907.8ZM34716.9 6752.8H34720.5V6765.16H34722.5L34734.5 6752.8H34739L34725.2 6767.32L34725 6765.8L34739.2 6781H34734.4L34722.4 6768.2H34720.5V6781H34716.9V6752.8ZM34740.3 6766.88C34740.3 6764.13 34740.8 6761.65 34741.9 6759.44C34743 6757.23 34744.5 6755.49 34746.5 6754.24C34748.5 6752.99 34750.9 6752.36 34753.6 6752.36C34756.3 6752.36 34758.7 6752.99 34760.7 6754.24C34762.7 6755.49 34764.3 6757.23 34765.3 6759.44C34766.4 6761.65 34766.9 6764.13 34766.9 6766.88C34766.9 6769.65 34766.4 6772.15 34765.3 6774.36C34764.3 6776.57 34762.7 6778.31 34760.7 6779.56C34758.7 6780.81 34756.3 6781.44 34753.6 6781.44C34750.9 6781.44 34748.5 6780.81 34746.5 6779.56C34744.5 6778.31 34743 6776.57 34741.9 6774.36C34740.8 6772.15 34740.3 6769.65 34740.3 6766.88ZM34744 6766.88C34744 6769.15 34744.3 6771.13 34745.1 6772.84C34745.8 6774.52 34746.9 6775.85 34748.3 6776.84C34749.7 6777.8 34751.5 6778.28 34753.6 6778.28C34755.7 6778.28 34757.5 6777.8 34758.9 6776.84C34760.4 6775.85 34761.5 6774.52 34762.2 6772.84C34762.9 6771.13 34763.3 6769.15 34763.3 6766.88C34763.3 6764.64 34762.9 6762.67 34762.2 6760.96C34761.5 6759.25 34760.4 6757.92 34758.9 6756.96C34757.5 6756 34755.7 6755.52 34753.6 6755.52C34751.5 6755.52 34749.7 6756.01 34748.3 6757C34746.9 6757.96 34745.8 6759.29 34745.1 6761C34744.3 6762.68 34744 6764.64 34744 6766.88ZM34772.1 6752.8H34779.4L34792.8 6780H34793.8L34793.2 6777.48V6752.8H34796.8V6781H34789.6L34776.2 6753.8H34775.1L34775.8 6756.32V6781H34772.1V6752.8ZM34824.1 6752.8V6755.92H34801.1V6752.8H34824.1ZM34814.5 6753.6V6781H34810.8V6753.6H34814.5ZM34832 6752.8H34839.8L34848.8 6781H34845L34836.4 6753.8H34835.4L34826.8 6781H34823L34832 6752.8ZM34828.4 6767.08H34843.5V6770.2H34828.4V6767.08ZM34852.7 6752.8H34856.3V6765.16H34858.3L34870.3 6752.8H34874.9L34861 6767.32L34860.9 6765.8L34875 6781H34870.2L34858.3 6768.2H34856.3V6781H34852.7V6752.8ZM34900.9 6752.8V6755.92H34877.9V6752.8H34900.9ZM34891.2 6753.6V6781H34887.6V6753.6H34891.2ZM34739.6 6814.52C34739.6 6817.05 34738.7 6819.01 34736.9 6820.4C34735.1 6821.76 34732.4 6822.44 34728.7 6822.44C34724.4 6822.44 34721.2 6821.49 34719 6819.6C34716.8 6817.71 34715.7 6814.97 34715.7 6811.4H34719.4C34719.4 6813.19 34719.7 6814.68 34720.4 6815.88C34721.1 6817.05 34722.2 6817.93 34723.6 6818.52C34724.9 6819.08 34726.7 6819.36 34728.8 6819.36C34731.2 6819.36 34733 6818.97 34734.2 6818.2C34735.3 6817.43 34735.9 6816.25 34735.9 6814.68C34735.9 6813.56 34735.5 6812.6 34734.8 6811.8C34734 6811 34732.8 6810.39 34731.2 6809.96L34723.3 6807.92C34721.2 6807.33 34719.6 6806.44 34718.6 6805.24C34717.5 6804.04 34717 6802.56 34717 6800.8C34717 6798.4 34717.9 6796.56 34719.6 6795.28C34721.3 6794 34723.8 6793.36 34727 6793.36C34729.6 6793.36 34731.7 6793.75 34733.4 6794.52C34735.2 6795.29 34736.5 6796.41 34737.4 6797.88C34738.3 6799.32 34738.8 6801.07 34738.8 6803.12H34735C34735 6800.88 34734.4 6799.2 34733 6798.08C34731.7 6796.96 34729.7 6796.4 34727 6796.4C34725 6796.4 34723.4 6796.76 34722.3 6797.48C34721.3 6798.2 34720.7 6799.28 34720.7 6800.72C34720.7 6801.73 34721.1 6802.6 34721.7 6803.32C34722.4 6804.04 34723.5 6804.6 34725 6805L34732.8 6806.96C34735 6807.55 34736.7 6808.48 34737.9 6809.76C34739 6811.04 34739.6 6812.63 34739.6 6814.52ZM34757.2 6793.8H34760.9V6806.16H34762.9L34774.8 6793.8H34779.4L34765.5 6808.32L34765.4 6806.8L34779.5 6822H34774.7L34762.8 6809.2H34760.9V6822H34757.2V6793.8ZM34780.7 6807.88C34780.7 6805.13 34781.2 6802.65 34782.3 6800.44C34783.3 6798.23 34784.9 6796.49 34786.9 6795.24C34788.9 6793.99 34791.3 6793.36 34794 6793.36C34796.7 6793.36 34799.1 6793.99 34801.1 6795.24C34803.1 6796.49 34804.6 6798.23 34805.7 6800.44C34806.7 6802.65 34807.3 6805.13 34807.3 6807.88C34807.3 6810.65 34806.7 6813.15 34805.7 6815.36C34804.6 6817.57 34803.1 6819.31 34801.1 6820.56C34799.1 6821.81 34796.7 6822.44 34794 6822.44C34791.3 6822.44 34788.9 6821.81 34786.9 6820.56C34784.9 6819.31 34783.3 6817.57 34782.3 6815.36C34781.2 6813.15 34780.7 6810.65 34780.7 6807.88ZM34784.3 6807.88C34784.3 6810.15 34784.7 6812.13 34785.4 6813.84C34786.1 6815.52 34787.2 6816.85 34788.7 6817.84C34790.1 6818.8 34791.9 6819.28 34794 6819.28C34796.1 6819.28 34797.9 6818.8 34799.3 6817.84C34800.7 6816.85 34801.8 6815.52 34802.5 6813.84C34803.3 6812.13 34803.6 6810.15 34803.6 6807.88C34803.6 6805.64 34803.3 6803.67 34802.5 6801.96C34801.8 6800.25 34800.7 6798.92 34799.3 6797.96C34797.9 6797 34796.1 6796.52 34794 6796.52C34791.9 6796.52 34790.1 6797.01 34788.7 6798C34787.2 6798.96 34786.1 6800.29 34785.4 6802C34784.7 6803.68 34784.3 6805.64 34784.3 6807.88ZM34815 6822C34814.2 6822 34813.6 6821.79 34813.1 6821.36C34812.7 6820.91 34812.5 6820.28 34812.5 6819.48V6793.8H34816.1V6818.88H34830.2V6822H34815ZM34831.7 6807.88C34831.7 6805.13 34832.3 6802.65 34833.3 6800.44C34834.4 6798.23 34835.9 6796.49 34837.9 6795.24C34840 6793.99 34842.3 6793.36 34845.1 6793.36C34847.8 6793.36 34850.1 6793.99 34852.1 6795.24C34854.2 6796.49 34855.7 6798.23 34856.7 6800.44C34857.8 6802.65 34858.3 6805.13 34858.3 6807.88C34858.3 6810.65 34857.8 6813.15 34856.7 6815.36C34855.7 6817.57 34854.2 6819.31 34852.1 6820.56C34850.1 6821.81 34847.8 6822.44 34845.1 6822.44C34842.3 6822.44 34840 6821.81 34837.9 6820.56C34835.9 6819.31 34834.4 6817.57 34833.3 6815.36C34832.3 6813.15 34831.7 6810.65 34831.7 6807.88ZM34835.4 6807.88C34835.4 6810.15 34835.8 6812.13 34836.5 6813.84C34837.2 6815.52 34838.3 6816.85 34839.7 6817.84C34841.2 6818.8 34843 6819.28 34845.1 6819.28C34847.2 6819.28 34848.9 6818.8 34850.4 6817.84C34851.8 6816.85 34852.9 6815.52 34853.6 6813.84C34854.3 6812.13 34854.7 6810.15 34854.7 6807.88C34854.7 6805.64 34854.3 6803.67 34853.6 6801.96C34852.9 6800.25 34851.8 6798.92 34850.4 6797.96C34848.9 6797 34847.2 6796.52 34845.1 6796.52C34843 6796.52 34841.2 6797.01 34839.7 6798C34838.3 6798.96 34837.2 6800.29 34836.5 6802C34835.8 6803.68 34835.4 6805.64 34835.4 6807.88ZM34863.6 6793.8H34870.8L34884.3 6821H34885.3L34884.7 6818.48V6793.8H34888.3V6822H34881L34867.6 6794.8H34866.6L34867.2 6797.32V6822H34863.6V6793.8ZM34909.9 6793.8V6796.92H34893.7V6793.8H34909.9ZM34909.9 6818.88V6822H34893.7V6818.88H34909.9ZM34903.6 6794.6V6821.2H34900V6794.6H34903.6ZM34931.2 6793.8V6796.92H34915V6793.8H34931.2ZM34931.2 6818.88V6822H34915V6818.88H34931.2ZM34924.9 6794.6V6821.2H34921.3V6794.6H34924.9ZM34916.4 6787.92L34928.9 6784.72L34929.6 6787.44L34917 6790.64L34916.4 6787.92Z" fill="#CCCCCC" />
<g>
<path d="M34715.7 6854.08H34717.9V6871H34715.7V6854.08ZM34720.7 6863.42C34721.8 6863.42 34722.6 6863.32 34723.3 6863.13C34724 6862.94 34724.5 6862.57 34724.9 6862.02C34725.3 6861.46 34725.5 6860.68 34725.5 6859.67C34725.5 6858.66 34725.3 6857.89 34724.9 6857.34C34724.5 6856.8 34724 6856.43 34723.3 6856.24C34722.6 6856.05 34721.8 6855.95 34720.7 6855.95H34717.9V6854.08H34720.6C34722.2 6854.08 34723.5 6854.26 34724.5 6854.61C34725.6 6854.96 34726.4 6855.54 34726.9 6856.36C34727.4 6857.18 34727.7 6858.28 34727.7 6859.67C34727.7 6861.74 34727.1 6863.19 34726 6864.04C34724.8 6864.87 34723 6865.29 34720.6 6865.29H34717.9V6863.42H34720.7ZM34730.6 6854.08H34736.9C34738.3 6854.08 34739.5 6854.22 34740.5 6854.49C34741.4 6854.74 34742.2 6855.21 34742.7 6855.88C34743.2 6856.54 34743.5 6857.45 34743.5 6858.62C34743.5 6859.45 34743.3 6860.14 34743.1 6860.68C34742.8 6861.21 34742.5 6861.62 34742 6861.93C34741.5 6862.22 34741 6862.42 34740.3 6862.55L34740.1 6862.6V6863.2H34741.9C34742.5 6863.2 34742.9 6863.34 34743.1 6863.63C34743.4 6863.92 34743.5 6864.33 34743.5 6864.86V6871H34741.3V6864.3H34732.8V6871H34730.6V6854.08ZM34737 6862.43C34738 6862.42 34738.8 6862.33 34739.4 6862.17C34740 6861.99 34740.5 6861.66 34740.8 6861.18C34741.1 6860.69 34741.3 6859.99 34741.3 6859.1C34741.3 6858.17 34741.1 6857.48 34740.8 6857.03C34740.5 6856.58 34740 6856.3 34739.4 6856.17C34738.8 6856.02 34737.9 6855.95 34736.9 6855.95H34732.8V6862.43H34736.9H34737ZM34746.5 6862.53C34746.5 6860.88 34746.8 6859.39 34747.5 6858.06C34748.1 6856.74 34749 6855.7 34750.2 6854.94C34751.4 6854.19 34752.9 6853.82 34754.5 6853.82C34756.1 6853.82 34757.5 6854.19 34758.7 6854.94C34759.9 6855.7 34760.9 6856.74 34761.5 6858.06C34762.1 6859.39 34762.5 6860.88 34762.5 6862.53C34762.5 6864.19 34762.1 6865.69 34761.5 6867.02C34760.9 6868.34 34759.9 6869.38 34758.7 6870.14C34757.5 6870.89 34756.1 6871.26 34754.5 6871.26C34752.9 6871.26 34751.4 6870.89 34750.2 6870.14C34749 6869.38 34748.1 6868.34 34747.5 6867.02C34746.8 6865.69 34746.5 6864.19 34746.5 6862.53ZM34748.7 6862.53C34748.7 6863.89 34748.9 6865.08 34749.3 6866.1C34749.8 6867.11 34750.4 6867.91 34751.3 6868.5C34752.2 6869.08 34753.2 6869.37 34754.5 6869.37C34755.7 6869.37 34756.8 6869.08 34757.7 6868.5C34758.5 6867.91 34759.2 6867.11 34759.6 6866.1C34760.1 6865.08 34760.3 6863.89 34760.3 6862.53C34760.3 6861.18 34760.1 6860 34759.6 6858.98C34759.2 6857.95 34758.5 6857.15 34757.7 6856.58C34756.8 6856 34755.7 6855.71 34754.5 6855.71C34753.2 6855.71 34752.2 6856.01 34751.3 6856.6C34750.4 6857.18 34749.8 6857.98 34749.3 6859C34748.9 6860.01 34748.7 6861.18 34748.7 6862.53ZM34765.6 6854.08H34771.3C34772.8 6854.08 34774 6854.2 34774.9 6854.44C34775.9 6854.68 34776.6 6855.1 34777.1 6855.71C34777.6 6856.3 34777.8 6857.14 34777.8 6858.21C34777.8 6858.93 34777.7 6859.54 34777.4 6860.06C34777.1 6860.55 34776.8 6860.94 34776.3 6861.23C34775.9 6861.5 34775.4 6861.68 34774.8 6861.76C34774.6 6861.78 34774.5 6861.79 34774.4 6861.81V6862.38C34774.5 6862.38 34774.6 6862.39 34774.7 6862.41C34775.6 6862.46 34776.4 6862.62 34777 6862.91C34777.6 6863.18 34778.1 6863.62 34778.5 6864.21C34778.9 6864.8 34779.1 6865.56 34779.1 6866.49C34779.1 6867.61 34778.8 6868.5 34778.3 6869.18C34777.7 6869.83 34777 6870.3 34776 6870.59C34775 6870.86 34773.8 6871 34772.3 6871H34765.6V6854.08ZM34772.4 6869.18C34772.7 6869.18 34773 6869.17 34773.2 6869.15C34774 6869.12 34774.7 6869.02 34775.2 6868.84C34775.8 6868.65 34776.2 6868.34 34776.5 6867.9C34776.8 6867.47 34776.9 6866.88 34776.9 6866.13C34776.9 6865.44 34776.8 6864.88 34776.5 6864.45C34776.2 6864.02 34775.8 6863.7 34775.3 6863.49C34774.8 6863.28 34774.2 6863.15 34773.4 6863.1C34773 6863.07 34772.6 6863.06 34772.4 6863.06H34767.8V6869.18H34772.4ZM34771.4 6861.33C34771.8 6861.33 34772.1 6861.32 34772.3 6861.3C34773 6861.27 34773.7 6861.18 34774.1 6861.02C34774.6 6860.84 34775 6860.56 34775.3 6860.18C34775.5 6859.79 34775.7 6859.26 34775.7 6858.59C34775.7 6857.81 34775.5 6857.22 34775.2 6856.84C34774.9 6856.44 34774.5 6856.18 34774 6856.07C34773.4 6855.94 34772.7 6855.87 34771.7 6855.86H34771.4H34767.8V6861.33H34771.4ZM34791 6854.08V6855.95H34781.3V6854.08H34791ZM34791 6869.13V6871H34781.3V6869.13H34791ZM34787.2 6854.56V6870.52H34785.1V6854.56H34787.2ZM34782.1 6850.55L34789.7 6848.63L34790.1 6850.26L34782.5 6852.18L34782.1 6850.55ZM34807.8 6861.71V6863.61H34794.7V6861.71H34807.8ZM34796.4 6854.08V6871H34794.2V6854.08H34796.4ZM34808.3 6854.08V6871H34806.1V6854.08H34808.3ZM34816 6854.08H34820.7L34826.1 6871H34823.8L34818.7 6854.68H34818.1L34812.9 6871H34810.6L34816 6854.08ZM34813.9 6862.65H34822.9V6864.52H34813.9V6862.65ZM34814.3 6850.55L34821.9 6848.63L34822.3 6850.26L34814.8 6852.18L34814.3 6850.55ZM34850 6866.51C34850 6868.03 34849.4 6869.21 34848.3 6870.04C34847.3 6870.86 34845.6 6871.26 34843.4 6871.26C34840.9 6871.26 34838.9 6870.7 34837.6 6869.56C34836.3 6868.42 34835.6 6866.78 34835.6 6864.64H34837.8C34837.8 6865.71 34838.1 6866.61 34838.5 6867.33C34838.9 6868.03 34839.5 6868.56 34840.3 6868.91C34841.2 6869.25 34842.2 6869.42 34843.5 6869.42C34844.9 6869.42 34846 6869.18 34846.7 6868.72C34847.4 6868.26 34847.8 6867.55 34847.8 6866.61C34847.8 6865.94 34847.5 6865.36 34847.1 6864.88C34846.6 6864.4 34845.9 6864.03 34844.9 6863.78L34840.2 6862.55C34838.9 6862.2 34838 6861.66 34837.3 6860.94C34836.7 6860.22 34836.4 6859.34 34836.4 6858.28C34836.4 6856.84 34836.9 6855.74 34838 6854.97C34839 6854.2 34840.5 6853.82 34842.4 6853.82C34844 6853.82 34845.2 6854.05 34846.3 6854.51C34847.3 6854.98 34848.1 6855.65 34848.6 6856.53C34849.2 6857.39 34849.5 6858.44 34849.5 6859.67H34847.2C34847.2 6858.33 34846.8 6857.32 34846 6856.65C34845.2 6855.98 34844 6855.64 34842.4 6855.64C34841.2 6855.64 34840.3 6855.86 34839.6 6856.29C34839 6856.72 34838.6 6857.37 34838.6 6858.23C34838.6 6858.84 34838.8 6859.36 34839.2 6859.79C34839.7 6860.22 34840.3 6860.56 34841.2 6860.8L34845.9 6861.98C34847.2 6862.33 34848.2 6862.89 34848.9 6863.66C34849.6 6864.42 34850 6865.38 34850 6866.51ZM34852.7 6854.08H34854.9V6871H34852.7V6854.08ZM34857.7 6863.42C34858.7 6863.42 34859.6 6863.32 34860.3 6863.13C34861 6862.94 34861.5 6862.57 34861.9 6862.02C34862.3 6861.46 34862.5 6860.68 34862.5 6859.67C34862.5 6858.66 34862.3 6857.89 34861.9 6857.34C34861.5 6856.8 34861 6856.43 34860.3 6856.24C34859.6 6856.05 34858.7 6855.95 34857.7 6855.95H34854.9V6854.08H34857.6C34859.2 6854.08 34860.5 6854.26 34861.5 6854.61C34862.5 6854.96 34863.3 6855.54 34863.9 6856.36C34864.4 6857.18 34864.7 6858.28 34864.7 6859.67C34864.7 6861.74 34864.1 6863.19 34862.9 6864.04C34861.8 6864.87 34860 6865.29 34857.6 6865.29H34854.9V6863.42H34857.7ZM34867.5 6862.53C34867.5 6860.88 34867.8 6859.39 34868.4 6858.06C34869.1 6856.74 34870 6855.7 34871.2 6854.94C34872.4 6854.19 34873.8 6853.82 34875.5 6853.82C34877.1 6853.82 34878.5 6854.19 34879.7 6854.94C34880.9 6855.7 34881.9 6856.74 34882.5 6858.06C34883.1 6859.39 34883.4 6860.88 34883.4 6862.53C34883.4 6864.19 34883.1 6865.69 34882.5 6867.02C34881.9 6868.34 34880.9 6869.38 34879.7 6870.14C34878.5 6870.89 34877.1 6871.26 34875.5 6871.26C34873.8 6871.26 34872.4 6870.89 34871.2 6870.14C34870 6869.38 34869.1 6868.34 34868.4 6867.02C34867.8 6865.69 34867.5 6864.19 34867.5 6862.53ZM34869.7 6862.53C34869.7 6863.89 34869.9 6865.08 34870.3 6866.1C34870.8 6867.11 34871.4 6867.91 34872.3 6868.5C34873.1 6869.08 34874.2 6869.37 34875.5 6869.37C34876.7 6869.37 34877.8 6869.08 34878.7 6868.5C34879.5 6867.91 34880.2 6867.11 34880.6 6866.1C34881 6865.08 34881.3 6863.89 34881.3 6862.53C34881.3 6861.18 34881 6860 34880.6 6858.98C34880.2 6857.95 34879.5 6857.15 34878.7 6856.58C34877.8 6856 34876.7 6855.71 34875.5 6855.71C34874.2 6855.71 34873.1 6856.01 34872.3 6856.6C34871.4 6857.18 34870.8 6857.98 34870.3 6859C34869.9 6860.01 34869.7 6861.18 34869.7 6862.53ZM34884.5 6871V6869.13H34890C34890.8 6869.13 34891.4 6868.98 34891.8 6868.67C34892.3 6868.37 34892.6 6867.94 34892.8 6867.38C34893 6866.82 34893.1 6866.1 34893.1 6865.24C34893.1 6865.18 34893.1 6865.12 34893.1 6865.07V6855.95H34887V6854.08H34893.6C34894.3 6854.08 34894.7 6854.2 34894.9 6854.44C34895.2 6854.66 34895.3 6855.06 34895.3 6855.64V6865.67C34895.3 6867.4 34894.9 6868.72 34894.1 6869.63C34893.2 6870.54 34892.1 6871 34890.5 6871H34884.5ZM34898.8 6854.08H34910.6V6855.95H34901V6861.62H34909.4V6863.44H34901V6869.13H34910.6V6871H34898.8V6854.08ZM34913.5 6854.08H34917.8L34925.9 6870.4H34926.5L34926.1 6868.89V6854.08H34928.3V6871H34923.9L34915.9 6854.68H34915.3L34915.7 6856.19V6871H34913.5V6854.08ZM34941.3 6854.08V6855.95H34931.5V6854.08H34941.3ZM34941.3 6869.13V6871H34931.5V6869.13H34941.3ZM34937.5 6854.56V6870.52H34935.3V6854.56H34937.5ZM34932.4 6850.55L34939.9 6848.63L34940.3 6850.26L34932.8 6852.18L34932.4 6850.55ZM34945.9 6871.24C34945.3 6871.24 34944.9 6871.05 34944.5 6870.66C34944.1 6870.26 34943.9 6869.78 34943.9 6869.2C34943.9 6868.64 34944.1 6868.17 34944.5 6867.78C34944.9 6867.38 34945.3 6867.18 34945.9 6867.18C34946.5 6867.18 34947 6867.38 34947.4 6867.78C34947.8 6868.17 34948 6868.64 34948 6869.2C34948 6869.76 34947.8 6870.24 34947.4 6870.64C34947 6871.04 34946.5 6871.24 34945.9 6871.24ZM34952.3 6871.24C34951.7 6871.24 34951.2 6871.05 34950.8 6870.66C34950.5 6870.26 34950.3 6869.78 34950.3 6869.2C34950.3 6868.64 34950.5 6868.17 34950.8 6867.78C34951.2 6867.38 34951.7 6867.18 34952.3 6867.18C34952.9 6867.18 34953.4 6867.38 34953.8 6867.78C34954.2 6868.17 34954.4 6868.64 34954.4 6869.2C34954.4 6869.76 34954.2 6870.24 34953.8 6870.64C34953.4 6871.04 34952.9 6871.24 34952.3 6871.24ZM34958.7 6871.24C34958.1 6871.24 34957.6 6871.05 34957.2 6870.66C34956.8 6870.26 34956.6 6869.78 34956.6 6869.2C34956.6 6868.64 34956.8 6868.17 34957.2 6867.78C34957.6 6867.38 34958.1 6867.18 34958.7 6867.18C34959.3 6867.18 34959.8 6867.38 34960.2 6867.78C34960.6 6868.17 34960.8 6868.64 34960.8 6869.2C34960.8 6869.76 34960.6 6870.24 34960.2 6870.64C34959.8 6871.04 34959.3 6871.24 34958.7 6871.24ZM34965.1 6871.24C34964.5 6871.24 34964 6871.05 34963.6 6870.66C34963.2 6870.26 34963 6869.78 34963 6869.2C34963 6868.64 34963.2 6868.17 34963.6 6867.78C34964 6867.38 34964.5 6867.18 34965.1 6867.18C34965.6 6867.18 34966.1 6867.38 34966.5 6867.78C34966.9 6868.17 34967.1 6868.64 34967.1 6869.2C34967.1 6869.76 34966.9 6870.24 34966.5 6870.64C34966.1 6871.04 34965.6 6871.24 34965.1 6871.24ZM34971.4 6871.24C34970.8 6871.24 34970.4 6871.05 34970 6870.66C34969.6 6870.26 34969.4 6869.78 34969.4 6869.2C34969.4 6868.64 34969.6 6868.17 34970 6867.78C34970.4 6867.38 34970.8 6867.18 34971.4 6867.18C34972 6867.18 34972.5 6867.38 34972.9 6867.78C34973.3 6868.17 34973.5 6868.64 34973.5 6869.2C34973.5 6869.76 34973.3 6870.24 34972.9 6870.64C34972.5 6871.04 34972 6871.24 34971.4 6871.24ZM34977.8 6871.24C34977.2 6871.24 34976.7 6871.05 34976.3 6870.66C34976 6870.26 34975.8 6869.78 34975.8 6869.2C34975.8 6868.64 34976 6868.17 34976.3 6867.78C34976.7 6867.38 34977.2 6867.18 34977.8 6867.18C34978.4 6867.18 34978.9 6867.38 34979.3 6867.78C34979.7 6868.17 34979.9 6868.64 34979.9 6869.2C34979.9 6869.76 34979.7 6870.24 34979.3 6870.64C34978.9 6871.04 34978.4 6871.24 34977.8 6871.24ZM34984.2 6871.24C34983.6 6871.24 34983.1 6871.05 34982.7 6870.66C34982.3 6870.26 34982.1 6869.78 34982.1 6869.2C34982.1 6868.64 34982.3 6868.17 34982.7 6867.78C34983.1 6867.38 34983.6 6867.18 34984.2 6867.18C34984.8 6867.18 34985.3 6867.38 34985.7 6867.78C34986.1 6868.17 34986.3 6868.64 34986.3 6869.2C34986.3 6869.76 34986.1 6870.24 34985.7 6870.64C34985.3 6871.04 34984.8 6871.24 34984.2 6871.24ZM34990.6 6871.24C34990 6871.24 34989.5 6871.05 34989.1 6870.66C34988.7 6870.26 34988.5 6869.78 34988.5 6869.2C34988.5 6868.64 34988.7 6868.17 34989.1 6867.78C34989.5 6867.38 34990 6867.18 34990.6 6867.18C34991.1 6867.18 34991.6 6867.38 34992 6867.78C34992.4 6868.17 34992.6 6868.64 34992.6 6869.2C34992.6 6869.76 34992.4 6870.24 34992 6870.64C34991.6 6871.04 34991.1 6871.24 34990.6 6871.24ZM34996.9 6871.24C34996.3 6871.24 34995.9 6871.05 34995.5 6870.66C34995.1 6870.26 34994.9 6869.78 34994.9 6869.2C34994.9 6868.64 34995.1 6868.17 34995.5 6867.78C34995.9 6867.38 34996.3 6867.18 34996.9 6867.18C34997.5 6867.18 34998 6867.38 34998.4 6867.78C34998.8 6868.17 34999 6868.64 34999 6869.2C34999 6869.76 34998.8 6870.24 34998.4 6870.64C34998 6871.04 34997.5 6871.24 34996.9 6871.24ZM35003.3 6871.24C35002.7 6871.24 35002.2 6871.05 35001.8 6870.66C35001.5 6870.26 35001.3 6869.78 35001.3 6869.2C35001.3 6868.64 35001.5 6868.17 35001.8 6867.78C35002.2 6867.38 35002.7 6867.18 35003.3 6867.18C35003.9 6867.18 35004.4 6867.38 35004.8 6867.78C35005.2 6868.17 35005.4 6868.64 35005.4 6869.2C35005.4 6869.76 35005.2 6870.24 35004.8 6870.64C35004.4 6871.04 35003.9 6871.24 35003.3 6871.24ZM35009.7 6871.24C35009.1 6871.24 35008.6 6871.05 35008.2 6870.66C35007.8 6870.26 35007.6 6869.78 35007.6 6869.2C35007.6 6868.64 35007.8 6868.17 35008.2 6867.78C35008.6 6867.38 35009.1 6867.18 35009.7 6867.18C35010.3 6867.18 35010.8 6867.38 35011.2 6867.78C35011.6 6868.17 35011.8 6868.64 35011.8 6869.2C35011.8 6869.76 35011.6 6870.24 35011.2 6870.64C35010.8 6871.04 35010.3 6871.24 35009.7 6871.24Z" fill="#CCCCCC" />
</g>
</g>
</g>
</g>
</g>
<defs><clipPath id="clip102_0_1">
<rect x="34318" y="6415" width="744" height="1073" rx="20" fill="white" />
</clipPath>
</defs></svg>